<svg width="24" height="24" viewBox="0 0 24 24" fill="none" xmlns="http://www.w3.org/2000/svg">
<g clip-path="url(#clip0_91_46645)">
<path fill-rule="evenodd" clip-rule="evenodd" d="M23.8187 14.0888C23.9518 13.3325 24.0143 12.554 23.9982 11.7553C23.8711 5.33375 18.6011 0.0940532 12.1776 0.00127947C5.4676 -0.0955279 0 5.31359 0 11.9993C0 12.7113 0.0625214 13.4111 0.181514 14.0888C0.207733 14.234 0.383196 14.2925 0.492104 14.1936L7.00442 8.37915C9.85015 5.83796 14.15 5.83796 16.9957 8.37915L23.5081 14.1936C23.617 14.2925 23.7924 14.234 23.8187 14.0888ZM21.6748 18.5903L13.9988 11.7372C12.8613 10.7207 11.1409 10.7207 10.0034 11.7372L2.32539 18.5903C2.19833 18.7033 2.17615 18.8949 2.27497 19.032C4.45717 22.0411 7.99871 23.9994 12.0001 23.9994C16.0015 23.9994 19.543 22.0411 21.7252 19.032C21.824 18.8949 21.7998 18.7033 21.6748 18.5903Z" fill="#0077FF"/>
</g>
<defs>
<clipPath id="clip0_91_46645">
<rect width="24" height="24" fill="white"/>
</clipPath>
</defs>
</svg>
